<svg width="42" height="42" viewBox="0 0 512 512" xmlns="http://www.w3.org/2000/svg">
<path d="m260.15,434.48c0-7.56-.12-14.38.03-21.19.18-8.06.95-16.12.78-24.17-.13-5.88-.54-11.99-2.28-17.54-4.25-13.57-8.51-27.25-14.35-40.17-5.93-13.13-14.36-24.92-24-35.85-12.34-14-26.79-25.41-42.31-35.38-7.7-4.95-16.49-8.49-25.18-11.56-11.89-4.19-24.1-7.49-36.27-10.84-5.03-1.39-10.3-1.9-15.45-2.86-1.07-.2-2.1-.63-3.46-1.05,39.59-30.65,94.5-38.74,145.22-8.76,54.28,32.09,69.81,89.39,62.59,131.13-5.23,30.26-18.47,56.82-42.21,77.27-.96.83-2.63.83-3.13.97Z" fill="#31c3eb"/>
<path d="m322.79,142.92c4.46.01,8.93.03,13.39.04,0,0-.07.21-.07.21l.19-.13c10.19,2.92,20.59,5.28,30.48,8.99,4.95,1.86,9.24,5.86,13.39,9.42,13.03,11.17,21.59,25.49,24.81,42.09,2.44,12.55,1.97,25.31-2.11,38.17-4.46,14.08-11.62,25.78-22.5,35.26-7.54,6.57-15.65,12.49-23.66,18.49-7.96,5.96-16.11,11.66-24.83,17.94-2.26-9.76-4.41-19.11-6.6-28.44-.3-1.28-1.23-2.53-1.18-3.76.07-1.76.2-4.28,1.32-5.13,9.83-7.44,20.24-14.14,29.76-21.95,7.84-6.43,13.64-14.1,16.43-24.84,2.75-10.59.97-19.91-2.97-28.79-2.95-6.64-7.59-12.65-14.78-16.79-8.45-4.87-16.93-7.07-26.46-7.11-11.44-.04-20.03,5.77-28.53,12.39-8.63,6.71-17.59,13.01-26.49,19.35-.7.5-2.6.45-3.15-.12-7.54-7.73-17.88-10.8-26.74-16.31-.55-.34-.92-.95-1.74-1.84,6.3-4.85,12.34-9.69,18.57-14.27,10.09-7.41,20.29-14.67,30.48-21.94,9.83-7.03,21.2-9.47,32.91-10.82,0,0,.22.09.22.09,0,0-.13-.22-.13-.22Z" fill="#fbfbfb"/>
<polygon points="322.79 142.92 322.91 143.14 322.69 143.05 322.6 142.83" fill="#31c3eb"/>
<polygon points="336.29 143.05 336.11 143.17 336.17 142.96 336.33 142.8" fill="#31c3eb"/>
</svg>